<svg version="1.1" id="Layer_1" xmlns="http://www.w3.org/2000/svg" xmlns:xlink="http://www.w3.org/1999/xlink" x="0px" y="0px" viewBox="0 0 1000 1000" enable-background="new 0 0 1000 1000" xml:space="preserve"><path fill="#010101" d="M499.998,90.09c133.506,0,149.321,0.509,202.041,2.914c48.751,2.225,75.227,10.37,92.846,17.217c23.336,9.07,39.993,19.906,57.492,37.402c17.494,17.497,28.329,34.153,37.399,57.491c6.846,17.619,14.994,44.095,17.216,92.842c2.407,52.724,2.915,68.538,2.915,202.043c0,133.506-0.508,149.319-2.915,202.041c-2.222,48.751-10.37,75.226-17.216,92.844c-9.07,23.338-19.905,39.995-37.399,57.491c-17.499,17.497-34.156,28.332-57.492,37.402c-17.619,6.846-44.095,14.992-92.846,17.216c-52.712,2.405-68.523,2.915-202.041,2.915c-133.513,0-149.325-0.51-202.042-2.915c-48.749-2.224-75.225-10.37-92.843-17.216c-23.338-9.07-39.995-19.905-57.49-37.402c-17.497-17.496-28.333-34.153-37.404-57.491c-6.846-17.618-14.991-44.093-17.216-92.842c-2.405-52.724-2.915-68.537-2.915-202.043c0-133.505,0.51-149.319,2.915-202.042c2.225-48.749,10.37-75.225,17.216-92.843c9.071-23.338,19.907-39.994,37.404-57.49c17.495-17.497,34.152-28.333,57.49-37.403c17.619-6.847,44.095-14.992,92.843-17.217C350.681,90.599,366.493,90.09,499.998,90.09 M499.998,0C364.208,0,347.18,0.575,293.852,3.008c-53.22,2.428-89.566,10.88-121.372,23.241c-32.878,12.777-60.764,29.873-88.56,57.67c-27.796,27.797-44.893,55.682-57.67,88.561c-12.36,31.804-20.813,68.15-23.241,121.37C0.574,347.179,0,364.207,0,499.999c0,135.793,0.574,152.818,3.008,206.148c2.428,53.22,10.881,89.565,23.241,121.37c12.777,32.878,29.874,60.764,57.67,88.562c27.796,27.797,55.682,44.892,88.56,57.671c31.806,12.359,68.152,20.812,121.372,23.238c53.329,2.435,70.356,3.012,206.146,3.012c135.793,0,152.818-0.577,206.15-3.012c53.22-2.427,89.565-10.879,121.368-23.238c32.88-12.779,60.764-29.874,88.562-57.671c27.799-27.798,44.894-55.682,57.671-88.562c12.361-31.805,20.813-68.15,23.239-121.37c2.435-53.33,3.012-70.355,3.012-206.148c0-135.791-0.577-152.82-3.012-206.148c-2.427-53.22-10.878-89.566-23.239-121.37c-12.777-32.879-29.872-60.764-57.671-88.561c-27.798-27.797-55.682-44.893-88.562-57.67C795.714,13.888,759.368,5.437,706.148,3.008C652.816,0.575,635.791,0,499.998,0L499.998,0z"/><path fill="#010101" d="M499.998,243.242c-141.801,0-256.756,114.954-256.756,256.757c0,141.803,114.955,256.756,256.756,256.756c141.805,0,256.758-114.953,256.758-256.756C756.756,358.196,641.803,243.242,499.998,243.242z M499.998,666.666c-92.047,0-166.665-74.62-166.665-166.667c0-92.049,74.618-166.667,166.665-166.667s166.669,74.618,166.669,166.667C666.667,592.046,592.045,666.666,499.998,666.666z"/><circle fill="#010101" cx="766.9" cy="233.099" r="60"/></svg>
