<svg version="1.1" id="Layer_1" xmlns="http://www.w3.org/2000/svg" xmlns:xlink="http://www.w3.org/1999/xlink" x="0px" y="0px" viewBox="0 0 1500 1000" enable-background="new 0 0 1500 1000" xml:space="preserve"><path fill="#010303" d="M751.892,599.721h0.304c11.352,0,22.518-3.298,31.548-9.277l2.438-1.526c0.551-0.366,1.099-0.673,1.648-1.039l28.615-23.559L1498.414,3.267c-1.405-1.952-3.786-3.267-6.346-3.267H7.932c-1.83,0-3.539,0.672-4.88,1.771l713.513,586.29C725.532,595.448,738.408,599.721,751.892,599.721z"/><polygon fill="#010303" points="0,79.501 0,911.13 511.125,499.497 "/><polygon fill="#010303" points="989.363,502.274 1500,911.375 1500,82.25 "/><path fill="#010303" d="M827.063,635.792c-20.379,16.663-46.982,25.82-74.987,25.82c-28.067,0-54.669-9.095-74.928-25.636L560.059,539.69L0,990.601v1.466c0,4.271,3.661,7.934,8.053,7.934h1484.015c4.271,0,7.932-3.662,7.932-7.934v-1.345L940.429,542.498L827.063,635.792z"/></svg>