<svg version="1.1" id="Layer_1" xmlns="http://www.w3.org/2000/svg" xmlns:xlink="http://www.w3.org/1999/xlink" x="0px" y="0px" viewBox="0 0 1000 1000" enable-background="new 0 0 1000 1000" xml:space="preserve"><path fill="#010101" d="M506.286,968.733c-2.838,0-5.523-0.092-7.599-0.213c-1.616,0.15-3.296,0.213-5.004,0.213c-59.537,0-99.332-28.105-134.455-52.915c-25.207-17.761-48.948-34.545-76.779-39.153c-13.641-2.289-27.251-3.418-40.374-3.418c-23.681,0-42.357,3.662-56.028,6.349c-8.393,1.616-15.625,3.021-21.24,3.021c-5.859,0-13-1.281-15.96-11.412c-2.35-7.996-4.028-15.716-5.676-23.192c-4.059-18.614-7.019-29.968-14.007-31.065c-74.673-11.507-118.8-28.443-127.589-48.98c-0.916-2.137-1.435-4.304-1.556-6.471c-0.336-6.103,3.997-11.475,10.04-12.48c59.293-9.767,112.026-41.044,156.732-93.075c34.637-40.251,51.634-78.701,53.465-82.974c0.061-0.185,0.152-0.396,0.275-0.58c8.604-17.456,10.313-32.531,5.096-44.829c-9.613-22.644-41.502-32.744-62.589-39.427c-5.218-1.647-10.193-3.235-14.129-4.793c-18.706-7.354-49.437-22.947-45.347-44.432c2.991-15.685,23.742-26.609,40.526-26.609c4.669,0,8.789,0.823,12.268,2.44c18.981,8.88,36.04,13.366,50.688,13.366c18.249,0,27.069-6.927,29.205-8.911c-0.519-9.704-1.16-19.988-1.8-29.692c0-0.031,0-0.123,0-0.123c-4.272-68.051-9.613-152.704,12.054-201.286C311.412,42.771,449.102,31.48,489.719,31.48c1.099,0,17.73-0.183,17.73-0.183c0.731,0,1.557-0.031,2.381-0.031c40.77,0,178.704,11.321,243.674,156.732c21.666,48.613,16.326,133.327,12.023,201.439l-0.185,3.265c-0.579,9.247-1.128,18.003-1.586,26.488c1.982,1.861,10.07,8.209,26.458,8.85c14.007-0.519,30.059-5.004,47.757-13.273c5.493-2.594,11.535-3.113,15.655-3.113c6.227,0,12.542,1.221,17.822,3.387l0.273,0.123c15.015,5.341,24.871,15.959,25.056,27.159c0.213,10.406-7.539,25.97-45.685,41.015c-3.906,1.557-8.88,3.145-14.16,4.792c-21.116,6.714-52.944,16.783-62.559,39.427c-5.249,12.298-3.51,27.373,5.096,44.829c0.093,0.184,0.185,0.365,0.274,0.58c2.655,6.225,66.893,152.46,210.198,176.049c6.042,1.007,10.376,6.379,10.04,12.48c-0.122,2.197-0.671,4.364-1.587,6.531c-8.729,20.415-52.854,37.32-127.561,48.855c-7.018,1.067-9.979,12.391-14.007,30.913c-1.678,7.66-3.356,15.168-5.706,23.04c-2.167,7.386-6.988,11.018-14.77,11.018h-1.16c-5.065,0-12.206-0.916-21.239-2.655c-15.808-3.083-33.507-5.951-56.028-5.951c-13.122,0-26.731,1.16-40.402,3.418c-27.771,4.608-51.543,21.362-76.658,39.123C605.648,940.628,565.825,968.733,506.286,968.733"/></svg>
