<svg version="1.1" id="Layer_1" xmlns="http://www.w3.org/2000/svg" xmlns:xlink="http://www.w3.org/1999/xlink" x="0px" y="0px" viewBox="0 0 1000 1000" enable-background="new 0 0 1000 1000" xml:space="preserve"><path d="M1000,189.917c-36.811,16.347-76.366,27.327-117.856,32.318c42.426-25.393,74.932-65.573,90.155-113.489c-39.618,23.521-83.479,40.554-130.272,49.726c-37.372-39.868-90.716-64.762-149.738-64.762c-113.177,0-205.078,91.902-205.078,205.141c0,16.097,1.747,31.694,5.241,46.73c-170.452-8.547-321.625-90.155-422.823-214.375c-17.656,30.384-27.764,65.635-27.764,103.194c0,71.125,36.249,133.891,91.278,170.764c-33.629-1.061-65.261-10.357-92.962-25.643v2.558c0,99.451,70.689,182.368,164.587,201.21c-17.22,4.742-35.313,7.176-54.093,7.176c-13.227,0-26.08-1.248-38.558-3.682c26.08,81.545,101.822,140.816,191.602,142.313c-70.189,55.092-158.66,87.847-254.742,87.847c-16.596,0-32.942-0.873-48.977-2.808c90.779,58.148,198.652,92.151,314.45,92.151c377.464,0,583.667-312.578,583.667-583.666c0-8.922-0.188-17.782-0.562-26.516C937.734,267.22,972.61,231.033,1000,189.917"/></svg>