<?xml version="1.0" encoding="utf-8"?>
<!-- Generator: Adobe Illustrator 16.0.0, SVG Export Plug-In . SVG Version: 6.00 Build 0)  -->
<!DOCTYPE svg PUBLIC "-//W3C//DTD SVG 1.1//EN" "http://www.w3.org/Graphics/SVG/1.1/DTD/svg11.dtd">
<svg version="1.1" id="Layer_1" xmlns="http://www.w3.org/2000/svg" xmlns:xlink="http://www.w3.org/1999/xlink" x="0px" y="0px"
	 width="1000px" height="1000px" viewBox="0 0 1000 1000" enable-background="new 0 0 1000 1000" xml:space="preserve">
<g>
	<g>
		<g>
			<path fill="#040305" d="M500.001,236.184c-151.305,0-274.074,122.554-274.074,274.03c0,92.217,45.83,173.361,115.818,223.008
				h316.598c69.772-49.646,115.688-130.793,115.688-223.008C774.072,358.823,651.348,236.184,500.001,236.184z M499.872,687.092
				c-15.921,0-28.623-47.588-28.623-106.291c0-58.702,12.746-106.333,28.623-106.333c16.006,0,28.964,47.589,28.964,106.333
				C528.88,639.504,515.922,687.092,499.872,687.092z"/>
			<path fill="#040305" d="M342.603,959.234h74.193c9.827,23.215,42.481,40.765,83.161,40.765c40.724,0,73.334-17.55,83.161-40.765
				h74.323V765.361H342.603V959.234z M377.018,806.429h245.967v34.758H377.018V806.429z M377.018,875.987h245.967v34.845H377.018
				V875.987z"/>
			<path fill="#040305" d="M465.241,0.001h69.645v163.577h-69.645V0.001z M105.991,191.255l49.134-49.219l115.73,115.559
				l-49.09,49.261L105.991,191.255z M729.103,257.639l115.73-115.688l49.176,49.22l-115.73,115.688L729.103,257.639z"/>
		</g>
	</g>
</g>
</svg>
