<?xml version="1.0" encoding="utf-8"?>
<!-- Generator: Adobe Illustrator 16.0.0, SVG Export Plug-In . SVG Version: 6.00 Build 0)  -->
<!DOCTYPE svg PUBLIC "-//W3C//DTD SVG 1.1//EN" "http://www.w3.org/Graphics/SVG/1.1/DTD/svg11.dtd">
<svg version="1.1" id="Layer_1" xmlns="http://www.w3.org/2000/svg" xmlns:xlink="http://www.w3.org/1999/xlink" x="0px" y="0px"
	 width="1000px" height="1000px" viewBox="0 0 1000 1000" enable-background="new 0 0 1000 1000" xml:space="preserve">
<path fill="#010101" d="M686.221,189.489v-21.926c0-24.889-20.186-45.044-45.043-45.044h-73.963
	c6.168-11.146,9.68-24.919,9.68-38.936C576.834,37.531,539.395,0,493.342,0c-46.021,0-83.46,37.531-83.46,83.583
	c0,14.017,3.512,27.79,9.681,38.936h-60.679c-24.889,0-45.043,20.155-45.043,45.044v21.926H213.308
	c-37.714,0-68.313,30.63-68.313,68.375v673.761c0,37.745,30.599,68.375,68.313,68.375H786.66c37.715,0,68.346-30.6,68.346-68.375
	V257.864c0-37.745-30.631-68.375-68.346-68.375H686.221z M443.626,83.613c0-27.454,22.293-49.838,49.686-49.838
	c27.454,0,49.777,22.385,49.777,49.838c0,15.697-7.329,29.164-18.78,38.936h-61.932C450.956,112.747,443.626,99.31,443.626,83.613z
	 M786.66,890.979c0,23.179-18.842,42.021-42.051,42.021h-489.25c-23.209,0-42.051-18.842-42.051-42.021V299.884
	c0-23.239,18.842-42.02,42.051-42.02h58.419c0,18.475,14.963,33.47,33.439,33.47h305.503c18.506,0,33.439-14.964,33.439-33.47
	h58.449c23.18,0,42.051,18.811,42.051,42.02V890.979L786.66,890.979z"/>
<path fill="#010101" d="M339.339,350.211c32.798,0,59.396,26.568,59.396,59.366s-26.599,59.396-59.396,59.396
	s-59.366-26.599-59.366-59.396S306.541,350.211,339.339,350.211z"/>
<path fill="#010101" d="M677.213,376.443H474.684c-18.628,0-33.775,14.841-33.775,33.47c0,18.659,15.116,33.5,33.775,33.5h202.59
	c18.629,0,33.684-14.842,33.684-33.5C710.957,391.284,695.871,376.443,677.213,376.443z"/>
<path fill="#010101" d="M339.339,518.659c32.798,0,59.396,26.567,59.396,59.365s-26.599,59.396-59.396,59.396
	s-59.366-26.599-59.366-59.396S306.541,518.659,339.339,518.659z"/>
<path fill="#010101" d="M677.213,543.822H474.684c-18.628,0-33.775,15.574-33.775,34.202c0,18.659,15.116,34.173,33.775,34.173
	h202.59c18.629,0,33.684-15.514,33.684-34.173C710.957,559.396,695.871,543.822,677.213,543.822z"/>
<path fill="#010101" d="M339.339,698.711c32.798,0,59.366,26.568,59.366,59.366c0,32.768-26.568,59.336-59.366,59.336
	c-32.767,0-59.335-26.568-59.335-59.336C280.003,725.279,306.572,698.711,339.339,698.711z"/>
<path fill="#010101" d="M677.213,723.753H474.684c-18.628,0-33.775,15.574-33.775,34.232c0,18.629,15.116,34.142,33.775,34.142
	h202.59c18.629,0,33.684-15.544,33.684-34.142C710.957,739.327,695.871,723.753,677.213,723.753z"/>
</svg>
