<?xml version="1.0" encoding="utf-8"?>
<!-- Generator: Adobe Illustrator 16.0.0, SVG Export Plug-In . SVG Version: 6.00 Build 0)  -->
<!DOCTYPE svg PUBLIC "-//W3C//DTD SVG 1.1//EN" "http://www.w3.org/Graphics/SVG/1.1/DTD/svg11.dtd">
<svg version="1.1" id="Layer_1" xmlns="http://www.w3.org/2000/svg" xmlns:xlink="http://www.w3.org/1999/xlink" x="0px" y="0px"
	 width="1000px" height="1000px" viewBox="0 0 1000 1000" enable-background="new 0 0 1000 1000" xml:space="preserve">
<g>
	<g id="Layer_1_80_">
		<g>
			<path fill="#010101" d="M784.117,806.812H215.893c-25.11,0-45.441,20.362-45.441,45.463c0,25.1,20.331,45.462,45.441,45.462
				h568.183c25.141,0,45.462-20.362,45.462-45.462C829.538,827.174,809.217,806.812,784.117,806.812z"/>
			<path fill="#010101" d="M159.107,465.877v113.625c0,18.865,15.272,34.117,34.086,34.117c18.825,0,34.107-15.252,34.107-34.117
				V465.877c0-18.835-15.282-34.086-34.107-34.086C174.358,431.812,159.107,447.073,159.107,465.877z"/>
			<path fill="#010101" d="M272.721,420.446v159.097c0,18.824,15.282,34.117,34.107,34.117c18.814,0,34.086-15.293,34.086-34.117
				V420.446c0-18.825-15.272-34.097-34.086-34.097C288.003,386.35,272.721,401.622,272.721,420.446z"/>
			<path fill="#010101" d="M386.366,374.984v204.518c0,18.865,15.271,34.117,34.107,34.117c18.804,0,34.076-15.252,34.076-34.117
				V374.984c0-18.825-15.272-34.107-34.076-34.107C401.637,340.877,386.366,356.16,386.366,374.984z"/>
			<path fill="#010101" d="M954.538,102.264H45.473C20.362,102.264,0,122.626,0,147.726V715.93c0,25.1,20.362,45.462,45.473,45.462
				h867.51c-1.33-1.164-2.826-2.119-4.073-3.324l-62.915-62.958c-36.278,20.487-77.336,31.417-119.474,31.417
				c-57.388,0-111.743-19.781-155.419-56.018H90.893V193.157h818.183v128.127c39.52,44.569,61.336,101.168,61.336,161.299
				c0,42.106-10.929,83.163-31.375,119.4L1000,662.987V147.705C1000,122.626,979.638,102.264,954.538,102.264z"/>
			<path fill="#010101" d="M901.513,628.828c-4.529-4.571-10.597-6.399-16.539-5.776l-9.558-9.558
				c31.914-36.236,49.534-82.156,49.534-130.87c0-52.984-20.611-102.809-58.054-140.282
				c-37.524-37.546-87.309-58.147-140.376-58.147c-52.941,0-102.768,20.622-140.251,58.147
				c-37.524,37.473-58.178,87.298-58.178,140.282c0,52.995,20.694,102.819,58.178,140.303
				c37.483,37.524,87.31,58.095,140.251,58.095c48.787,0,94.665-17.578,130.901-49.534l9.6,9.516
				c-0.665,5.984,1.163,11.969,5.734,16.581l68.359,68.359c3.989,3.989,9.184,5.901,14.42,5.901c5.153,0,10.389-1.953,14.42-5.901
				c7.896-7.938,7.896-20.819,0-28.757L901.513,628.828z M838.099,594.088c-29.754,29.837-69.398,46.293-111.578,46.293
				c-42.054,0-81.698-16.415-111.452-46.252c-29.796-29.754-46.252-69.398-46.252-111.525c0-42.106,16.415-81.73,46.252-111.515
				c29.754-29.806,69.439-46.231,111.452-46.231c42.18,0,81.824,16.404,111.578,46.231c29.754,29.785,46.168,69.409,46.168,111.515
				C884.267,524.73,867.853,564.292,838.099,594.088z"/>
		</g>
	</g>
</g>
</svg>
