<svg version="1.1" id="Layer_1" xmlns="http://www.w3.org/2000/svg" xmlns:xlink="http://www.w3.org/1999/xlink" x="0px" y="0px"
	 width="1000px" height="1000px" viewBox="0 0 1000 1000" enable-background="new 0 0 1000 1000" xml:space="preserve">
<g>
	<path fill="#010101" d="M1000,419.197c0-196.217-57.414-355.408-128.398-356.666c0.283-0.005,0.565-0.029,0.852-0.029h-80.999
		c0,0-190.233,142.906-464.092,198.978c-8.36,44.23-13.702,96.948-13.702,157.717c0,60.77,5.338,113.485,13.702,157.714
		c273.854,56.072,464.092,198.98,464.092,198.98h80.999c-0.283,0-0.565-0.023-0.852-0.031
		C942.594,774.602,1000,615.412,1000,419.197z M844.556,721.927c-9.163,0-19.073-9.514-24.166-15.185
		c-12.334-13.731-24.213-35.114-34.363-61.844c-22.713-59.792-35.222-139.946-35.222-225.706
		c0-85.751,12.509-165.908,35.222-225.706c10.145-26.727,22.028-48.11,34.363-61.844c5.093-5.675,15.003-15.187,24.166-15.187
		c9.155,0,19.077,9.516,24.162,15.187c12.333,13.735,24.212,35.116,34.367,61.844c22.712,59.796,35.221,139.954,35.221,225.706
		c0,85.745-12.509,165.907-35.221,225.706c-10.147,26.731-22.034,48.112-34.367,61.844
		C863.633,712.413,853.719,721.927,844.556,721.927z M245.911,419.197c0-50.733,3.719-100.029,10.792-145.6
		c-46.261,6.4-86.857,10.082-137.051,10.082c-65.487,0-65.487,0-65.487,0L0,376.146v86.104l54.161,92.466c0,0,0,0,65.487,0
		c50.194,0,90.79,3.685,137.051,10.082C249.634,519.227,245.911,469.931,245.911,419.197z M359.522,627.122l-124.998-23.936
		l79.924,314.005c4.137,16.245,20.258,24.456,35.826,18.217l115.777-46.339c15.569-6.228,21.805-23.402,13.863-38.168
		L359.522,627.122z M844.556,535.872c-3.54,0-7.351-3.665-9.319-5.852c-4.757-5.292-9.326-13.536-13.241-23.836
		c-8.752-23.046-13.573-53.939-13.573-86.99c0-33.05,4.821-63.942,13.573-86.99c3.915-10.301,8.495-18.543,13.241-23.836
		c1.969-2.187,5.779-5.854,9.319-5.854c3.532,0,7.355,3.669,9.315,5.854c4.757,5.293,9.331,13.534,13.241,23.836
		c8.754,23.044,13.576,53.939,13.576,86.99c0,33.049-4.822,63.944-13.576,86.99c-3.91,10.3-8.492,18.544-13.241,23.836
		C851.911,532.207,848.088,535.872,844.556,535.872z"/>
</g>
</svg>
