<?xml version="1.0" encoding="utf-8"?>
<!-- Generator: Adobe Illustrator 16.0.0, SVG Export Plug-In . SVG Version: 6.00 Build 0)  -->
<!DOCTYPE svg PUBLIC "-//W3C//DTD SVG 1.1//EN" "http://www.w3.org/Graphics/SVG/1.1/DTD/svg11.dtd">
<svg version="1.1" id="Layer_1" xmlns="http://www.w3.org/2000/svg" xmlns:xlink="http://www.w3.org/1999/xlink" x="0px" y="0px"
	 width="1000px" height="1000px" viewBox="0 0 1000 1000" enable-background="new 0 0 1000 1000" xml:space="preserve">
<path fill="#010101" d="M946.167,823.434L683.8,338.048V48.892C683.8,21.696,661.033,0,633.859,0H366.057
	c-27.217,0-49.598,21.696-49.598,48.892v289.156L53.878,823.434c-20.027,36.995-19.021,81.95,2.525,118.11
	C77.95,977.684,116.999,1000,159.065,1000h681.744c42.066,0,81.223-22.316,102.77-58.456
	C965.082,905.384,966.194,860.429,946.167,823.434z M543.309,620.357c23.515,0,42.558,19.043,42.558,42.558
	c0,23.494-19.086,42.559-42.558,42.559c-23.473,0-42.537-19.064-42.537-42.559C500.771,639.464,519.814,620.357,543.309,620.357z
	 M423.657,364.516c23.515,0,42.559,19.064,42.559,42.58c0,23.472-19.043,42.537-42.559,42.537
	c-23.494,0-42.537-19.064-42.537-42.537C381.142,383.58,400.164,364.516,423.657,364.516z M423.657,513.073
	c38.086,0,68.983,30.897,68.983,68.94c0,38.087-30.897,68.962-68.983,68.962c-38.086,0-68.962-30.875-68.962-68.962
	C354.695,543.949,385.571,513.073,423.657,513.073z M819.755,866.805c-8.858,15.085-25.034,23.986-42.451,23.986H222.592
	c-17.438,0-33.614-8.901-42.451-23.986c-8.858-15.063-9.094-33.464-0.621-48.763l66.672-119.844
	c9.5-17.139,28.265-26.96,47.758-25.099c88.54,8.431,188.056,84.176,277.003,80.816c47.629-1.819,91.835-19.172,133.943-42.388
	c23.772-13.138,53.685-4.536,66.887,19.215l48.613,87.256C828.827,833.319,828.613,851.763,819.755,866.805z"/>
</svg>
