<?xml version="1.0" encoding="utf-8"?>
<!-- Generator: Adobe Illustrator 16.0.0, SVG Export Plug-In . SVG Version: 6.00 Build 0)  -->
<!DOCTYPE svg PUBLIC "-//W3C//DTD SVG 1.1//EN" "http://www.w3.org/Graphics/SVG/1.1/DTD/svg11.dtd">
<svg version="1.1" id="Layer_1" xmlns="http://www.w3.org/2000/svg" xmlns:xlink="http://www.w3.org/1999/xlink" x="0px" y="0px"
	 width="1000px" height="1000px" viewBox="0 0 1000 1000" enable-background="new 0 0 1000 1000" xml:space="preserve">
<g>
	<path fill="#060507" d="M750,1000c-21.23,0-38.462-17.27-38.462-38.462V38.461C711.538,17.269,728.77,0,750,0h192.308
		C963.5,0,980.77,17.269,980.77,38.461v923.077c0,21.192-17.27,38.462-38.462,38.462H750z"/>
</g>
<g>
	<path fill="#060507" d="M403.846,1000c-21.23,0-38.461-17.27-38.461-38.462V269.231c0-21.192,17.23-38.462,38.461-38.462h192.309
		c21.191,0,38.461,17.27,38.461,38.462v692.307c0,21.192-17.27,38.462-38.461,38.462H403.846z"/>
</g>
<g>
	<path fill="#060507" d="M57.692,1000c-21.231,0-38.461-17.27-38.461-38.462V500c0-21.192,17.23-38.462,38.461-38.462H250
		c21.192,0,38.461,17.27,38.461,38.462v461.538c0,21.192-17.269,38.462-38.461,38.462H57.692z"/>
</g>
</svg>
