<svg version="1.1" id="Layer_1" xmlns="http://www.w3.org/2000/svg" xmlns:xlink="http://www.w3.org/1999/xlink" x="0px" y="0px" viewBox="0 0 1000 1000" enable-background="new 0 0 1000 1000" xml:space="preserve"><path fill="#010101" d="M643.836,515.981c-9.133-9.132-9.133-22.831,0-31.963l342.466-342.466c9.132-9.133,13.698-22.831,13.698-31.964c0-9.132-4.566-22.831-13.698-31.963l-63.927-63.927C913.242,4.566,899.543,0,890.411,0c-13.698,0-22.831,4.566-31.964,13.699L515.981,356.165c-9.132,9.132-22.831,9.132-31.963,0L141.553,13.699C132.42,4.566,118.722,0,109.589,0c-9.132,0-22.831,4.566-31.963,13.699L13.699,77.625C4.566,86.758,0,100.457,0,109.589c0,9.133,4.566,22.831,13.699,31.964l342.465,342.466c9.133,9.132,9.133,22.831,0,31.963L13.699,858.447C4.566,867.58,0,881.278,0,890.411c0,9.132,4.566,22.831,13.699,31.964l63.927,63.927c9.132,9.132,22.831,13.698,31.963,13.698c9.133,0,22.831-4.566,31.964-13.698l342.466-342.466c9.132-9.133,22.831-9.133,31.963,0l342.466,342.466c9.133,9.132,22.831,13.698,31.964,13.698c9.132,0,22.831-4.566,31.964-13.698l63.927-63.927c9.132-9.133,13.698-22.832,13.698-31.964c0-9.133-4.566-22.831-13.698-31.964L643.836,515.981z"/></svg>