<svg version="1.1" id="Layer_1" xmlns="http://www.w3.org/2000/svg" xmlns:xlink="http://www.w3.org/1999/xlink" x="0px" y="0px" viewBox="0 0 462 94" enable-background="new 0 0 462 94" xml:space="preserve">
<g>
	<path d="M108.661,48.631v-1.237c0-0.22,0.075-0.409,0.225-0.567c0.15-0.158,0.341-0.237,0.573-0.237h17.789
		c0.232,0,0.419,0.079,0.563,0.237c0.143,0.158,0.215,0.347,0.215,0.567v1.237c0,0.22-0.071,0.409-0.214,0.567
		s-0.33,0.237-0.561,0.237h-7.287v25.918c0,0.206-0.083,0.392-0.25,0.557c-0.166,0.166-0.353,0.249-0.561,0.249h-1.621
		c-0.208,0-0.391-0.083-0.55-0.249c-0.159-0.165-0.239-0.351-0.239-0.557V49.435h-7.287c-0.231,0-0.421-0.079-0.571-0.237
		C108.736,49.04,108.661,48.851,108.661,48.631z"/>
	<path d="M139.121,75.354v-27.96c0-0.206,0.082-0.392,0.246-0.557c0.164-0.165,0.349-0.247,0.554-0.247h1.621
		c0.232,0,0.424,0.079,0.574,0.237c0.15,0.158,0.226,0.347,0.226,0.567v12.33h17.068v-12.33c0-0.22,0.075-0.409,0.226-0.567
		c0.15-0.158,0.342-0.237,0.574-0.237h1.641c0.206,0,0.387,0.083,0.544,0.247c0.157,0.165,0.236,0.351,0.236,0.557v27.96
		c0,0.206-0.079,0.392-0.236,0.557c-0.157,0.166-0.338,0.249-0.544,0.249h-1.641c-0.232,0-0.424-0.079-0.574-0.239
		c-0.15-0.156-0.226-0.346-0.226-0.566V62.569h-17.068v12.784c0,0.221-0.075,0.41-0.226,0.566c-0.15,0.16-0.342,0.239-0.574,0.239
		h-1.621c-0.206,0-0.39-0.083-0.554-0.249C139.203,75.745,139.121,75.56,139.121,75.354z"/>
	<path d="M176.679,75.354v-27.96c0-0.22,0.075-0.409,0.226-0.567c0.15-0.158,0.342-0.237,0.574-0.237h16.535
		c0.232,0,0.424,0.079,0.574,0.237c0.15,0.158,0.226,0.347,0.226,0.567v1.237c0,0.22-0.075,0.409-0.226,0.567
		s-0.342,0.237-0.574,0.237h-14.114v10.289h12.062c0.206,0,0.39,0.083,0.554,0.248s0.246,0.351,0.246,0.558v1.236
		c0,0.233-0.079,0.426-0.236,0.577s-0.345,0.227-0.564,0.227h-12.062v10.744h14.114c0.232,0,0.424,0.079,0.574,0.238
		c0.15,0.16,0.226,0.35,0.226,0.571v1.225c0,0.222-0.075,0.412-0.226,0.571c-0.15,0.16-0.342,0.24-0.574,0.24h-16.535
		c-0.232,0-0.424-0.079-0.574-0.239C176.754,75.764,176.679,75.574,176.679,75.354z"/>
</g>
<g>
	<path d="M226.532,69.064c-1.352-2.322-2.027-4.872-2.027-7.649c0-2.776,0.675-5.334,2.027-7.67
		c1.352-2.337,3.187-4.183,5.508-5.537c2.321-1.354,4.86-2.032,7.617-2.032c2.043,0,3.873,0.331,5.491,0.99s3.181,1.636,4.689,2.928
		c0.164,0.165,0.253,0.364,0.267,0.599c0.014,0.232-0.062,0.432-0.227,0.598l-1.177,1.175c-0.193,0.206-0.361,0.303-0.506,0.289
		s-0.34-0.124-0.588-0.33c-1.11-0.976-2.377-1.771-3.801-2.381c-1.424-0.612-2.821-0.918-4.189-0.918
		c-1.629,0-3.173,0.327-4.631,0.98c-1.458,0.652-2.7,1.529-3.727,2.629s-1.841,2.392-2.443,3.876
		c-0.603,1.485-0.904,3.031-0.904,4.64c0,2.146,0.506,4.151,1.52,6.021c1.013,1.869,2.424,3.368,4.23,4.495
		c1.807,1.127,3.792,1.69,5.956,1.69c1.369,0,2.683-0.146,3.943-0.442s2.177-0.596,2.752-0.898l0.862-0.433v-5.918h-4.803
		c-0.231,0-0.422-0.075-0.572-0.227s-0.225-0.33-0.225-0.536v-1.546c0-0.233,0.075-0.427,0.226-0.578s0.342-0.227,0.574-0.227h7.262
		c0.205,0,0.383,0.082,0.533,0.247s0.226,0.352,0.226,0.558v9.671c0,0.274-0.11,0.494-0.331,0.659
		c-0.124,0.068-0.292,0.169-0.505,0.3c-0.213,0.13-0.677,0.354-1.389,0.669c-0.713,0.316-1.45,0.598-2.21,0.846
		c-0.76,0.247-1.716,0.472-2.868,0.671c-1.151,0.198-2.296,0.299-3.434,0.299c-2.757,0-5.296-0.671-7.617-2.012
		C229.719,73.221,227.883,71.389,226.532,69.064z"/>
	<path d="M262.288,75.354v-27.96c0-0.22,0.075-0.409,0.226-0.567c0.15-0.158,0.342-0.237,0.574-0.237h10.873
		c2.53,0,4.688,0.877,6.473,2.632c1.784,1.755,2.677,3.885,2.677,6.39c0,1.907-0.572,3.633-1.714,5.181
		c-1.143,1.547-2.643,2.7-4.503,3.46l5.766,10.695c0.15,0.273,0.154,0.544,0.01,0.81c-0.143,0.269-0.387,0.402-0.729,0.402h-2.011
		c-0.246,0-0.434-0.052-0.563-0.154c-0.131-0.104-0.25-0.265-0.359-0.482l-5.479-10.87h-8.021v10.705
		c0,0.205-0.082,0.39-0.246,0.554c-0.164,0.166-0.349,0.248-0.554,0.248h-1.621c-0.232,0-0.424-0.079-0.574-0.239
		C262.363,75.764,262.288,75.574,262.288,75.354z M265.591,61.807h8.165c1.641,0,3.06-0.597,4.257-1.79
		c1.196-1.194,1.794-2.648,1.794-4.364c0-1.606-0.602-2.999-1.806-4.179c-1.203-1.18-2.618-1.771-4.245-1.771h-8.165V61.807z"/>
	<path d="M292.099,75.069l12.78-28.438c0.15-0.303,0.39-0.454,0.718-0.454h0.41c0.328,0,0.567,0.151,0.718,0.454l12.698,28.438
		c0.055,0.124,0.082,0.247,0.082,0.371c0,0.15-0.041,0.279-0.123,0.39c-0.137,0.22-0.362,0.329-0.677,0.329h-1.682
		c-0.355,0-0.596-0.157-0.719-0.473l-3.118-6.91h-14.913l-3.057,6.91c-0.123,0.315-0.362,0.473-0.719,0.473h-1.682
		c-0.314,0-0.54-0.109-0.677-0.329c-0.082-0.123-0.123-0.253-0.123-0.39C292.017,75.316,292.044,75.193,292.099,75.069z
		 M299.463,66.116h12.596c-0.684-1.525-1.707-3.835-3.066-6.929c-1.361-3.093-2.384-5.401-3.067-6.928h-0.328L299.463,66.116z"/>
	<path d="M328.207,75.147l5.437-28.372c0.041-0.165,0.137-0.306,0.287-0.423c0.15-0.117,0.308-0.175,0.472-0.175h0.656
		c0.15,0,0.297,0.045,0.441,0.134c0.143,0.089,0.236,0.196,0.277,0.32l8.328,23.28h0.205l8.186-23.28
		c0.041-0.124,0.133-0.23,0.277-0.32c0.143-0.089,0.29-0.134,0.441-0.134h0.685c0.166,0,0.325,0.059,0.478,0.174
		c0.152,0.117,0.249,0.257,0.29,0.421l5.416,28.372c0.027,0.111,0.041,0.207,0.041,0.29c-0.014,0.152-0.062,0.297-0.145,0.435
		c-0.138,0.194-0.357,0.291-0.66,0.291h-1.693c-0.166,0-0.324-0.063-0.476-0.186c-0.151-0.125-0.247-0.262-0.288-0.413l-3.73-21.733
		h-0.164l-7.733,22.29c-0.041,0.124-0.138,0.23-0.288,0.32c-0.15,0.089-0.294,0.134-0.431,0.134h-0.759
		c-0.137,0-0.28-0.045-0.431-0.134c-0.15-0.09-0.246-0.196-0.287-0.32l-7.796-22.29h-0.185l-3.651,21.732
		c-0.027,0.151-0.12,0.289-0.277,0.414c-0.157,0.123-0.317,0.186-0.481,0.186h-1.683c-0.314,0-0.54-0.097-0.677-0.29
		c-0.082-0.124-0.123-0.268-0.123-0.433C328.166,75.354,328.18,75.258,328.207,75.147z"/>
	<path d="M372.247,75.354v-27.96c0-0.22,0.075-0.409,0.226-0.567c0.15-0.158,0.342-0.237,0.574-0.237h1.621
		c0.205,0,0.39,0.083,0.554,0.247c0.164,0.165,0.246,0.35,0.246,0.556v25.92h12.104c0.232,0,0.424,0.079,0.574,0.238
		c0.15,0.16,0.226,0.35,0.226,0.571v1.225c0,0.222-0.075,0.412-0.226,0.571c-0.15,0.16-0.342,0.24-0.574,0.24h-14.524
		c-0.232,0-0.424-0.079-0.574-0.239C372.322,75.764,372.247,75.574,372.247,75.354z"/>
	<path d="M398.952,75.354v-27.96c0-0.206,0.081-0.392,0.243-0.557c0.163-0.165,0.345-0.247,0.548-0.247h1.64
		c0.203,0,0.385,0.083,0.547,0.247c0.162,0.165,0.243,0.351,0.243,0.557v27.96c0,0.206-0.081,0.392-0.243,0.557
		c-0.162,0.166-0.344,0.249-0.547,0.249h-1.64c-0.203,0-0.385-0.083-0.548-0.249C399.033,75.745,398.952,75.56,398.952,75.354z"/>
	<path d="M414.354,72.324c0-0.191,0.082-0.397,0.246-0.617l0.616-0.802c0.219-0.303,0.421-0.478,0.604-0.525
		c0.186-0.047,0.435,0.045,0.749,0.278c0.246,0.206,0.509,0.412,0.79,0.617c0.279,0.206,0.769,0.528,1.467,0.968
		c0.697,0.438,1.483,0.796,2.358,1.071c0.876,0.273,1.744,0.411,2.605,0.411c1.669,0,3.025-0.46,4.073-1.38
		c1.045-0.919,1.568-2.058,1.568-3.417c0-1.386-0.581-2.57-1.743-3.551c-1.163-0.981-3.036-2.021-5.621-3.118
		c-1.286-0.549-2.328-1.054-3.129-1.513c-0.799-0.46-1.553-1.024-2.257-1.689s-1.213-1.434-1.527-2.306
		c-0.315-0.871-0.473-1.89-0.473-3.056c0-0.607,0.093-1.233,0.276-1.88c0.187-0.647,0.504-1.314,0.955-2.003
		s1.005-1.298,1.661-1.829c0.657-0.53,1.512-0.964,2.564-1.301c1.053-0.338,2.216-0.507,3.487-0.507c1.221,0,2.432,0.18,3.632,0.539
		s2.096,0.717,2.685,1.076l0.885,0.539c0.11,0.056,0.207,0.138,0.289,0.249c0.082,0.11,0.141,0.272,0.175,0.486
		c0.034,0.213-0.031,0.451-0.197,0.714l-0.438,0.724c-0.166,0.304-0.401,0.455-0.705,0.455c-0.221,0-0.483-0.082-0.786-0.246
		c-0.984-0.59-1.888-1.019-2.708-1.287c-0.82-0.267-1.777-0.401-2.872-0.401c-1.053,0-1.976,0.155-2.77,0.463
		c-0.793,0.309-1.398,0.71-1.814,1.204c-0.418,0.494-0.726,0.992-0.925,1.493c-0.198,0.5-0.297,0.991-0.297,1.472
		c0,0.728,0.123,1.373,0.37,1.936c0.246,0.563,0.636,1.072,1.169,1.534c0.533,0.459,1.11,0.856,1.733,1.193
		c0.622,0.336,1.426,0.71,2.41,1.121c1.259,0.522,2.317,0.992,3.177,1.41c0.858,0.419,1.712,0.909,2.558,1.472
		c0.845,0.563,1.512,1.146,2.001,1.75c0.488,0.604,0.884,1.304,1.186,2.1c0.303,0.797,0.454,1.675,0.454,2.635
		c0,2.176-0.896,4.015-2.689,5.515c-1.792,1.501-3.939,2.252-6.439,2.252c-1.148,0-2.267-0.146-3.354-0.436
		c-1.088-0.29-2.018-0.659-2.79-1.107c-0.773-0.449-1.354-0.815-1.744-1.098c-0.389-0.283-0.714-0.542-0.975-0.776
		c-0.178-0.152-0.301-0.27-0.369-0.353C414.396,72.704,414.354,72.546,414.354,72.324z"/>
	<path d="M441.635,48.631v-1.237c0-0.22,0.075-0.409,0.225-0.567c0.15-0.158,0.342-0.237,0.573-0.237h17.79
		c0.231,0,0.419,0.079,0.563,0.237c0.144,0.158,0.215,0.347,0.215,0.567v1.237c0,0.22-0.071,0.409-0.215,0.567
		c-0.143,0.158-0.329,0.237-0.561,0.237h-7.287v25.918c0,0.206-0.083,0.392-0.249,0.557c-0.167,0.166-0.354,0.249-0.562,0.249h-1.62
		c-0.207,0-0.391-0.083-0.552-0.249c-0.159-0.165-0.238-0.351-0.238-0.557V49.435h-7.286c-0.231,0-0.422-0.079-0.571-0.237
		C441.709,49.04,441.635,48.851,441.635,48.631z"/>
</g>
<path d="M69.026,90.195h-31.81V69.354c17.625-1.132,31.725-15.882,31.858-33.869c0.003-0.375-0.143-0.725-0.405-0.989
	c-0.261-0.266-0.619-0.395-0.991-0.395H36.1c-0.412,0-0.777,0.182-1.033,0.467c-0.385,0.25-0.641,0.682-0.641,1.177v30.888
	C17.478,66.3,3.79,52.329,3.79,35.215c0-17.32,14.02-31.41,31.25-31.41c8.62,0,16.944,3.638,22.838,9.981
	c0.526,0.567,1.409,0.598,1.972,0.068c0.563-0.529,0.593-1.416,0.067-1.981C53.499,4.962,44.431,1,35.041,1
	C16.271,1,1,16.349,1,35.215c0,18.662,14.939,33.869,33.426,34.201v21.862c0,0.429,0.195,0.808,0.497,1.065
	C35.17,92.737,35.604,93,36.101,93h32.926c0.77,0,1.396-0.627,1.396-1.402C70.422,90.823,69.796,90.195,69.026,90.195z
	 M37.217,66.562V36.905h29.026C65.422,52.456,52.851,65.446,37.217,66.562z"/>
</svg>
