<svg version="1.1" id="Layer_1" xmlns="http://www.w3.org/2000/svg" xmlns:xlink="http://www.w3.org/1999/xlink" x="0px" y="0px" viewBox="0 0 1000 1000" enable-background="new 0 0 1000 1000" xml:space="preserve"><path fill="#010101" d="M978.24,873.015L770.106,664.937c47.873-68.607,76.163-151.846,76.165-241.795C846.27,189.446,656.826,0,423.136,0C189.445,0,0,189.446,0,423.14c0,233.695,189.443,423.143,423.135,423.14c89.946,0,173.183-28.287,241.79-76.163l208.073,208.079c29.076,29.071,76.165,29.071,105.242,0C1007.253,949.18,1007.253,902.089,978.24,873.015z M423.133,725.385c-166.896,0-302.238-135.345-302.238-302.243c0-166.9,135.345-302.243,302.239-302.242c166.897-0.001,302.238,135.344,302.238,302.241C725.373,590.04,590.029,725.384,423.133,725.385z"/></svg>
